<?xml version="1.0" encoding="UTF-8" standalone="no"?>
    <!DOCTYPE svg PUBLIC "-//W3C//DTD SVG 1.1//EN" "http://www.w3.org/Graphics/SVG/1.1/DTD/svg11.dtd">
    <svg 
        width="100%" 
        height="100%" 
        viewBox="0 0 126 131" 
        version="1.1" 
        xmlns="http://www.w3.org/2000/svg" 
        xmlns:xlink="http://www.w3.org/1999/xlink" 
        xml:space="preserve" 
        xmlns:serif="http://www.serif.com/" 
        style="fill-rule:evenodd;clip-rule:evenodd;stroke-linejoin:round;stroke-miterlimit:2;">
            <g id="Logo">
                <g>
                    <g id="Layer1">
                        <path d="M46.296,14.199c0.823,-7.881 7.865,-14.199 16.344,-14.199c8.479,0 15.521,6.318 16.344,14.199c5.298,-5.892 14.708,-6.865 21.568,-1.881c6.86,4.984 8.843,14.234 4.877,21.094c7.75,-1.652 15.934,3.092 18.554,11.156c2.62,8.065 -1.212,16.714 -8.453,19.932c7.241,3.218 11.073,11.867 8.453,19.932c-2.62,8.064 -10.804,12.808 -18.554,11.156c3.966,6.86 1.983,16.11 -4.877,21.094c-6.86,4.984 -16.27,4.011 -21.568,-1.881c-0.823,7.881 -7.865,14.199 -16.344,14.199c-8.479,0 -15.521,-6.318 -16.344,-14.199c-5.298,5.892 -14.708,6.865 -21.568,1.881c-6.86,-4.984 -8.843,-14.234 -4.877,-21.094c-7.75,1.652 -15.934,-3.092 -18.554,-11.156c-2.62,-8.065 1.212,-16.714 8.453,-19.932c-7.241,-3.218 -11.073,-11.867 -8.453,-19.932c2.62,-8.064 10.804,-12.808 18.554,-11.156c-3.966,-6.86 -1.983,-16.11 4.877,-21.094c6.86,-4.984 16.27,-4.011 21.568,1.881Z" style="fill:url(#_Linear1);"/></g><g id="Layer11" serif:id="Layer1"><path d="M46.296,14.199c0.823,-7.881 7.865,-14.199 16.344,-14.199c8.479,0 15.521,6.318 16.344,14.199c5.298,-5.892 14.708,-6.865 21.568,-1.881c6.86,4.984 8.843,14.234 4.877,21.094c7.75,-1.652 15.934,3.092 18.554,11.156c2.62,8.065 -1.212,16.714 -8.453,19.932c7.241,3.218 11.073,11.867 8.453,19.932c-2.62,8.064 -10.804,12.808 -18.554,11.156c3.966,6.86 1.983,16.11 -4.877,21.094c-6.86,4.984 -16.27,4.011 -21.568,-1.881c-0.823,7.881 -7.865,14.199 -16.344,14.199c-8.479,0 -15.521,-6.318 -16.344,-14.199c-5.298,5.892 -14.708,6.865 -21.568,1.881c-6.86,-4.984 -8.843,-14.234 -4.877,-21.094c-7.75,1.652 -15.934,-3.092 -18.554,-11.156c-2.62,-8.065 1.212,-16.714 8.453,-19.932c-7.241,-3.218 -11.073,-11.867 -8.453,-19.932c2.62,-8.064 10.804,-12.808 18.554,-11.156c-3.966,-6.86 -1.983,-16.11 4.877,-21.094c6.86,-4.984 16.27,-4.011 21.568,1.881Z" style="fill:url(#_Linear2);"/></g><path d="M69.687,16.797c-4.673,-0.684 -9.421,-0.684 -14.094,-0c-1.206,3.893 -2.388,7.793 -3.544,11.702c-2.675,0.777 -5.256,1.846 -7.697,3.188c-3.581,-1.946 -7.175,-3.869 -10.781,-5.768c-3.788,2.821 -7.145,6.178 -9.965,9.965c1.899,3.606 3.822,7.2 5.768,10.781c-1.342,2.441 -2.411,5.022 -3.189,7.697c-3.908,1.156 -7.808,2.338 -11.701,3.545c-0.684,4.672 -0.684,9.42 -0,14.093c3.893,1.207 7.793,2.388 11.701,3.544c0.778,2.675 1.847,5.257 3.189,7.698c-1.946,3.581 -3.869,7.174 -5.768,10.78c2.82,3.788 6.177,7.145 9.965,9.966c3.606,-1.9 7.2,-3.822 10.781,-5.768c2.441,1.342 5.022,2.411 7.697,3.188c1.156,3.908 2.338,7.809 3.544,11.702c4.673,0.683 9.421,0.683 14.094,-0c1.207,-3.893 2.388,-7.794 3.544,-11.702c2.675,-0.777 5.256,-1.846 7.697,-3.188c3.581,1.946 7.175,3.868 10.781,5.768c3.788,-2.821 7.145,-6.178 9.966,-9.966c-1.9,-3.606 -3.823,-7.199 -5.769,-10.78c1.342,-2.441 2.412,-5.023 3.189,-7.698c3.908,-1.156 7.809,-2.337 11.701,-3.544c0.684,-4.673 0.684,-9.421 0,-14.093c-3.892,-1.207 -7.793,-2.389 -11.701,-3.545c-0.777,-2.675 -1.847,-5.256 -3.189,-7.697c1.946,-3.581 3.869,-7.175 5.769,-10.781c-2.821,-3.787 -6.178,-7.144 -9.966,-9.965c-3.606,1.899 -7.2,3.822 -10.781,5.768c-2.441,-1.342 -5.022,-2.411 -7.697,-3.188c-1.156,-3.909 -2.337,-7.809 -3.544,-11.702Zm-7.047,39.883c4.566,-0 8.274,3.707 8.274,8.273c-0,4.567 -3.708,8.274 -8.274,8.274c-4.566,0 -8.274,-3.707 -8.274,-8.274c0,-4.566 3.708,-8.273 8.274,-8.273Z" style="fill:#fff;"/><path d="M69.687,16.797c-4.673,-0.684 -9.421,-0.684 -14.094,-0c-1.206,3.893 -2.388,7.793 -3.544,11.702c-2.675,0.777 -5.256,1.846 -7.697,3.188c-3.581,-1.946 -7.175,-3.869 -10.781,-5.768c-3.788,2.821 -7.145,6.178 -9.965,9.965c1.899,3.606 3.822,7.2 5.768,10.781c-1.342,2.441 -2.411,5.022 -3.189,7.697c-3.908,1.156 -7.808,2.338 -11.701,3.545c-0.684,4.672 -0.684,9.42 -0,14.093c3.893,1.207 7.793,2.388 11.701,3.544c0.778,2.675 1.847,5.257 3.189,7.698c-1.946,3.581 -3.869,7.174 -5.768,10.78c2.82,3.788 6.177,7.145 9.965,9.966c3.606,-1.9 7.2,-3.822 10.781,-5.768c2.441,1.342 5.022,2.411 7.697,3.188c1.156,3.908 2.338,7.809 3.544,11.702c4.673,0.683 9.421,0.683 14.094,-0c1.207,-3.893 2.388,-7.794 3.544,-11.702c2.675,-0.777 5.256,-1.846 7.697,-3.188c3.581,1.946 7.175,3.868 10.781,5.768c3.788,-2.821 7.145,-6.178 9.966,-9.966c-1.9,-3.606 -3.823,-7.199 -5.769,-10.78c1.342,-2.441 2.412,-5.023 3.189,-7.698c3.908,-1.156 7.809,-2.337 11.701,-3.544c0.684,-4.673 0.684,-9.421 0,-14.093c-3.892,-1.207 -7.793,-2.389 -11.701,-3.545c-0.777,-2.675 -1.847,-5.256 -3.189,-7.697c1.946,-3.581 3.869,-7.175 5.769,-10.781c-2.821,-3.787 -6.178,-7.144 -9.966,-9.965c-3.606,1.899 -7.2,3.822 -10.781,5.768c-2.441,-1.342 -5.022,-2.411 -7.697,-3.188c-1.156,-3.909 -2.337,-7.809 -3.544,-11.702Zm-7.047,39.883c4.566,-0 8.274,3.707 8.274,8.273c-0,4.567 -3.708,8.274 -8.274,8.274c-4.566,0 -8.274,-3.707 -8.274,-8.274c0,-4.566 3.708,-8.273 8.274,-8.273Z" style="fill:#fff;"/><path d="M62.64,37.545c15.054,-0 27.276,12.222 27.276,27.276c0,15.054 -12.222,27.276 -27.276,27.276c-15.054,0 -27.276,-12.222 -27.276,-27.276c-0,-15.054 12.222,-27.276 27.276,-27.276Zm0,13.638c7.527,-0 13.638,6.111 13.638,13.638c0,7.527 -6.111,13.638 -13.638,13.638c-7.527,-0 -13.638,-6.111 -13.638,-13.638c0,-7.527 6.111,-13.638 13.638,-13.638Z" style="fill:url(#_Linear3);"/></g><path d="M62.64,37.545c15.054,-0 27.276,12.222 27.276,27.276c0,15.054 -12.222,27.276 -27.276,27.276c-15.054,0 -27.276,-12.222 -27.276,-27.276c-0,-15.054 12.222,-27.276 27.276,-27.276Zm0,13.638c7.527,-0 13.638,6.111 13.638,13.638c0,7.527 -6.111,13.638 -13.638,13.638c-7.527,-0 -13.638,-6.111 -13.638,-13.638c0,-7.527 6.111,-13.638 13.638,-13.638Z" style="fill:url(#_Linear4);"/>
                    </g>
                        
                        <defs>
                            <linearGradient id="_Linear1" x1="0" y1="0" x2="1" y2="0" gradientUnits="userSpaceOnUse" gradientTransform="matrix(73.3048,66.3429,-66.3429,73.3048,-1.85992,64.5)"><stop offset="0" style="stop-color:#b9ebff;stop-opacity:1"/><stop offset="1" style="stop-color:#00b5ff;stop-opacity:1"/></linearGradient>
                            <linearGradient id="_Linear2" x1="0" y1="0" x2="1" y2="0" gradientUnits="userSpaceOnUse" gradientTransform="matrix(73.3048,66.3429,-66.3429,73.3048,-1.85992,64.5)"><stop offset="0" style="stop-color:#b9ebff;stop-opacity:1"/><stop offset="1" style="stop-color:#00b5ff;stop-opacity:1"/></linearGradient>
                            <linearGradient id="_Linear3" x1="0" y1="0" x2="1" y2="0" gradientUnits="userSpaceOnUse" gradientTransform="matrix(30.9995,28.0554,-28.0554,30.9995,35.364,64.8209)"><stop offset="0" style="stop-color:#b9ebff;stop-opacity:1"/><stop offset="1" style="stop-color:#00b5ff;stop-opacity:1"/></linearGradient>
                            <linearGradient id="_Linear4" x1="0" y1="0" x2="1" y2="0" gradientUnits="userSpaceOnUse" gradientTransform="matrix(30.9995,28.0554,-28.0554,30.9995,35.364,64.8209)"><stop offset="0" style="stop-color:#b9ebff;stop-opacity:1"/><stop offset="1" style="stop-color:#00b5ff;stop-opacity:1"/></linearGradient>
                        </defs>
    </svg>